<?xml version="1.0" encoding="utf-8"?>
<!-- Generator: Adobe Illustrator 16.0.4, SVG Export Plug-In . SVG Version: 6.00 Build 0)  -->
<!DOCTYPE svg PUBLIC "-//W3C//DTD SVG 1.1//EN" "http://www.w3.org/Graphics/SVG/1.1/DTD/svg11.dtd">
<svg version="1.1" id="Layer_1" xmlns="http://www.w3.org/2000/svg" xmlns:xlink="http://www.w3.org/1999/xlink" x="0px" y="0px"
	 width="180px" height="60px" viewBox="0 0 180 60" enable-background="new 0 0 180 60" xml:space="preserve">
<g>
	<path fill="#FFFFFF" d="M13.284,23.874v2.753h-2.018v3.367h2.018V40h4.144V29.995h2.78c0,0,0.261-1.615,0.388-3.38h-3.152v-2.303
		c0-0.344,0.451-0.806,0.898-0.806h2.258V20H17.53C13.182,20,13.284,23.37,13.284,23.874L13.284,23.874z M13.284,23.874"/>
</g>
<path fill="#FFFFFF" d="M72.195,28.892c1.631-0.134,2.736-0.876,3.161-1.881c-0.587,0.36-2.413,0.754-3.422,0.38
	c-0.049-0.236-0.104-0.462-0.158-0.665c-0.769-2.822-3.398-5.096-6.155-4.82c0.223-0.089,0.449-0.174,0.675-0.249
	c0.304-0.108,2.083-0.397,1.803-1.026c-0.236-0.553-2.411,0.417-2.82,0.544c0.54-0.203,1.435-0.554,1.529-1.174
	c-0.827,0.113-1.64,0.506-2.269,1.074c0.228-0.244,0.398-0.542,0.435-0.862c-2.208,1.411-3.498,4.257-4.542,7.017
	c-0.82-0.794-1.547-1.42-2.199-1.768c-1.83-0.981-4.016-2.004-7.448-3.279c-0.105,1.137,0.561,2.646,2.484,3.65
	c-0.418-0.055-1.179,0.07-1.788,0.215c0.249,1.301,1.059,2.373,3.251,2.892c-1.002,0.066-1.52,0.294-1.989,0.786
	c0.457,0.904,1.57,1.97,3.574,1.751c-2.228,0.959-0.909,2.739,0.903,2.473c-3.092,3.194-7.968,2.96-10.767,0.288
	c7.31,9.961,23.199,5.892,25.567-3.702c1.773,0.014,2.816-0.616,3.464-1.31C74.462,29.397,72.981,29.219,72.195,28.892
	L72.195,28.892z"/>
<g>
	<path fill="#FFFFFF" d="M100.731,24.987c0,1.696,0.565,2.922,1.684,3.643c0.915,0.59,1.979,0.678,2.53,0.678
		c0.134,0,0.24-0.006,0.315-0.01c0,0-0.175,1.14,0.671,2.269l-0.038-0.002c-1.465,0.002-6.243,0.308-6.243,4.235
		c0,3.996,4.388,4.199,5.269,4.199c0.069,0,0.109-0.001,0.109-0.001c0.01,0,0.073,0.002,0.18,0.002c0.564,0,2.025-0.069,3.381-0.729
		c1.76-0.854,2.652-2.34,2.652-4.415c0-2.006-1.359-3.199-2.353-4.072c-0.605-0.531-1.13-0.99-1.13-1.437
		c0-0.455,0.384-0.797,0.867-1.23c0.782-0.7,1.521-1.696,1.521-3.579c0-1.657-0.216-2.768-1.538-3.475
		c0.139-0.07,0.626-0.122,0.866-0.155c0.719-0.097,1.767-0.208,1.767-0.794V20h-5.226C105.963,20.001,100.731,20.195,100.731,24.987
		L100.731,24.987z M109.166,35.229c0.101,1.598-1.267,2.777-3.319,2.928c-2.085,0.151-3.802-0.787-3.901-2.383
		c-0.049-0.767,0.288-1.52,0.948-2.117c0.671-0.607,1.59-0.981,2.591-1.055c0.117-0.008,0.235-0.013,0.352-0.013
		C107.765,32.59,109.072,33.725,109.166,35.229L109.166,35.229z M107.803,23.894c0.513,1.803-0.263,3.688-1.496,4.035
		c-0.141,0.041-0.289,0.062-0.437,0.062c-1.131,0-2.25-1.145-2.665-2.719c-0.231-0.885-0.213-1.658,0.053-2.401
		c0.262-0.731,0.73-1.226,1.322-1.392c0.142-0.041,0.288-0.062,0.437-0.062C106.382,21.417,107.259,21.982,107.803,23.894
		L107.803,23.894z M116.607,27.82v-3.409h-2.159v3.409h-3.41v2.16h3.41v3.409h2.159V29.98h3.409v-2.16H116.607z M116.607,27.82"/>
</g>
<g>
	<path fill="#FFFFFF" d="M150.867,35.46c0.484,0.484,0.779,1.141,0.781,1.871c-0.002,0.729-0.297,1.386-0.779,1.868l-0.002,0.001
		c-0.483,0.48-1.144,0.774-1.878,0.774c-0.733,0-1.394-0.295-1.876-0.775c-0.482-0.481-0.779-1.139-0.779-1.868
		c0-0.73,0.297-1.39,0.779-1.872v0.001c0.483-0.481,1.143-0.778,1.876-0.778C149.724,34.682,150.384,34.979,150.867,35.46
		L150.867,35.46z M150.867,35.459L150.867,35.459L150.867,35.459L150.867,35.459z M147.113,39.2L147.113,39.2L147.113,39.2
		L147.113,39.2z M146.336,26.801v3.818c2.493,0.003,4.852,0.981,6.616,2.749c1.764,1.762,2.739,4.123,2.744,6.625h0.001V40h3.834
		c-0.003-3.639-1.481-6.933-3.872-9.325C153.268,28.282,149.975,26.804,146.336,26.801L146.336,26.801z M146.343,20v3.817
		c8.913,0.007,16.156,7.263,16.163,16.183h3.828c-0.002-5.514-2.244-10.509-5.865-14.132C156.846,22.245,151.854,20.002,146.343,20
		L146.343,20z M146.343,20"/>
</g>
</svg>
