<?xml version="1.0" encoding="utf-8"?>
<!-- Generator: Adobe Illustrator 16.0.4, SVG Export Plug-In . SVG Version: 6.00 Build 0)  -->
<!DOCTYPE svg PUBLIC "-//W3C//DTD SVG 1.1//EN" "http://www.w3.org/Graphics/SVG/1.1/DTD/svg11.dtd">
<svg version="1.1" id="Layer_1" xmlns:sketch="http://www.bohemiancoding.com/sketch/ns"
	 xmlns="http://www.w3.org/2000/svg" xmlns:xlink="http://www.w3.org/1999/xlink" x="0px" y="0px" width="36px" height="36px"
	 viewBox="0 -12.5 36 36" enable-background="new 0 -12.5 36 36" xml:space="preserve">
<title>Imported Layers</title>
<description>Created with Sketch.</description>
<g>
	<path fill="#FFFFFF" d="M10.351,22.332c-2.249,0-4.354-0.955-5.876-2.476c-2.946-2.945-3.767-8.089,0.363-12.22
		C7.259,5.216,16.952-4.477,21.792-9.317c1.718-1.718,3.904-2.381,5.998-1.82c2.057,0.55,3.741,2.235,4.292,4.291
		c0.561,2.094-0.103,4.281-1.82,5.999L14.049,15.365c-0.927,0.926-1.972,1.474-3.022,1.585c-1.041,0.109-2.035-0.226-2.73-0.921
		c-1.261-1.262-1.44-3.635,0.656-5.73L20.341-1.089c0.468-0.468,1.226-0.468,1.693,0c0.468,0.467,0.468,1.226,0,1.693L10.646,11.992
		c-0.984,0.984-1.074,1.924-0.655,2.343c0.184,0.185,0.462,0.267,0.784,0.232c0.493-0.052,1.055-0.37,1.581-0.896L28.567-2.542
		c1.113-1.113,1.539-2.421,1.2-3.684c-0.334-1.245-1.353-2.264-2.598-2.598c-1.263-0.339-2.572,0.087-3.685,1.2
		C18.646-2.784,8.952,6.911,6.532,9.33c-3.159,3.159-2.402,6.793-0.363,8.832s5.673,2.797,8.833-0.361L31.956,0.846
		c0.468-0.468,1.226-0.468,1.693,0s0.468,1.227,0,1.694L16.695,19.494C14.697,21.492,12.46,22.332,10.351,22.332z"/>
</g>
</svg>
