<?xml version="1.0" encoding="utf-8"?>
<!-- Generator: Adobe Illustrator 16.0.4, SVG Export Plug-In . SVG Version: 6.00 Build 0)  -->
<!DOCTYPE svg PUBLIC "-//W3C//DTD SVG 1.1//EN" "http://www.w3.org/Graphics/SVG/1.1/DTD/svg11.dtd">
<svg version="1.1" id="Layer_1" xmlns="http://www.w3.org/2000/svg" xmlns:xlink="http://www.w3.org/1999/xlink" x="0px" y="0px"
	 width="62px" height="60px" viewBox="0 0 62 60" enable-background="new 0 0 62 60" xml:space="preserve">
<g enable-background="new    ">
	<path fill="#FFFFFF" d="M10.662,25.459c-0.105,0.168-0.216,0.294-0.331,0.378s-0.265,0.126-0.446,0.126
		c-0.161,0-0.334-0.051-0.52-0.152s-0.396-0.215-0.63-0.341c-0.235-0.126-0.503-0.24-0.804-0.342s-0.644-0.152-1.029-0.152
		c-0.665,0-1.16,0.142-1.485,0.426c-0.325,0.283-0.488,0.667-0.488,1.149c0,0.309,0.098,0.563,0.294,0.767s0.453,0.378,0.771,0.525
		c0.318,0.146,0.683,0.281,1.093,0.404c0.409,0.122,0.827,0.259,1.254,0.409c0.428,0.15,0.846,0.327,1.255,0.53
		c0.41,0.203,0.773,0.462,1.092,0.777c0.319,0.314,0.576,0.698,0.772,1.149c0.195,0.451,0.294,0.996,0.294,1.633
		c0,0.707-0.123,1.368-0.367,1.984c-0.245,0.616-0.601,1.153-1.066,1.611c-0.466,0.459-1.039,0.819-1.722,1.082
		s-1.458,0.394-2.326,0.394c-0.476,0-0.961-0.049-1.454-0.146c-0.493-0.099-0.971-0.236-1.434-0.415
		c-0.462-0.179-0.896-0.391-1.302-0.636s-0.76-0.518-1.061-0.818l1.05-1.659c0.077-0.126,0.186-0.228,0.326-0.305
		c0.14-0.077,0.29-0.115,0.451-0.115c0.21,0,0.422,0.066,0.636,0.199c0.213,0.133,0.454,0.28,0.725,0.441
		c0.269,0.161,0.579,0.308,0.929,0.44s0.763,0.199,1.239,0.199c0.644,0,1.145-0.142,1.501-0.425c0.357-0.283,0.536-0.733,0.536-1.35
		c0-0.356-0.099-0.647-0.294-0.871c-0.196-0.224-0.454-0.409-0.772-0.557c-0.318-0.146-0.681-0.276-1.086-0.389
		c-0.406-0.111-0.823-0.236-1.25-0.372c-0.427-0.137-0.844-0.305-1.249-0.504c-0.406-0.2-0.769-0.463-1.087-0.788
		c-0.319-0.325-0.576-0.731-0.772-1.218c-0.195-0.486-0.294-1.087-0.294-1.801c0-0.574,0.116-1.134,0.347-1.68
		c0.231-0.547,0.57-1.033,1.019-1.46s0.998-0.769,1.648-1.023c0.651-0.256,1.396-0.384,2.236-0.384c0.47,0,0.926,0.037,1.371,0.11
		c0.444,0.073,0.866,0.183,1.265,0.326c0.399,0.144,0.771,0.314,1.118,0.514c0.347,0.2,0.656,0.426,0.93,0.678L10.662,25.459z"/>
	<path fill="#FFFFFF" d="M24.627,22.351v2.814h-4.306v12.484h-3.549V25.165h-4.305v-2.814H24.627z"/>
	<path fill="#FFFFFF" d="M29.981,37.649h-3.569V22.351h3.569V37.649z"/>
	<path fill="#FFFFFF" d="M36.365,28.546h0.567c0.525,0,0.903-0.164,1.134-0.493l3.444-4.998c0.188-0.273,0.404-0.459,0.646-0.557
		s0.537-0.147,0.888-0.147h3.087l-4.536,6.185c-0.161,0.225-0.329,0.41-0.504,0.557c-0.175,0.147-0.354,0.27-0.536,0.367
		c0.267,0.099,0.51,0.233,0.73,0.404c0.221,0.172,0.421,0.401,0.604,0.688l4.62,7.098h-3.171c-0.203,0-0.377-0.014-0.52-0.042
		c-0.144-0.028-0.269-0.07-0.373-0.126c-0.105-0.056-0.196-0.124-0.273-0.205c-0.077-0.08-0.15-0.173-0.221-0.278l-3.465-5.323
		c-0.126-0.195-0.285-0.334-0.478-0.415c-0.192-0.08-0.453-0.12-0.782-0.12h-0.861v6.51h-3.549V22.351h3.549V28.546z"/>
	<path fill="#FFFFFF" d="M55.434,31.832v5.817h-3.549v-5.817l-5.544-9.481h3.129c0.308,0,0.553,0.072,0.735,0.216
		c0.182,0.144,0.329,0.327,0.44,0.551l2.163,4.452c0.175,0.357,0.336,0.687,0.483,0.987c0.146,0.301,0.276,0.599,0.389,0.893
		c0.104-0.301,0.23-0.603,0.378-0.903c0.146-0.301,0.304-0.626,0.473-0.977l2.142-4.452c0.042-0.091,0.1-0.182,0.173-0.272
		c0.074-0.091,0.158-0.174,0.252-0.247c0.095-0.073,0.203-0.133,0.326-0.179c0.122-0.045,0.257-0.068,0.404-0.068h3.149
		L55.434,31.832z"/>
</g>
</svg>
