<?xml version="1.0" encoding="utf-8"?>
<!-- Generator: Adobe Illustrator 16.0.0, SVG Export Plug-In . SVG Version: 6.00 Build 0)  -->
<!DOCTYPE svg PUBLIC "-//W3C//DTD SVG 1.1//EN" "http://www.w3.org/Graphics/SVG/1.1/DTD/svg11.dtd">
<svg version="1.1" id="Layer_1" xmlns="http://www.w3.org/2000/svg" xmlns:xlink="http://www.w3.org/1999/xlink" x="0px" y="0px"
	 width="23.375px" height="23.375px" viewBox="0 0 23.375 23.375" enable-background="new 0 0 23.375 23.375" xml:space="preserve">
<g>
	<path fill="#993366" d="M1.468,8.297C1.407,8.261,1.391,8.22,1.43,8.153l0.535-0.912C2,7.18,2.042,7.164,2.108,7.203l1.861,1.09
		c-0.215-0.451-0.162-0.874,0.047-1.23c0.357-0.61,0.893-0.735,1.576-0.335l1.553,0.91l0.209-0.357
		c0.035-0.06,0.083-0.073,0.144-0.037l0.296,0.173C7.86,7.456,7.867,7.5,7.832,7.561L7.057,8.884
		C7.021,8.945,6.973,8.958,6.913,8.922L6.617,8.749C6.55,8.709,6.544,8.665,6.579,8.605l0.17-0.29L5.498,7.582
		C5.069,7.331,4.742,7.196,4.463,7.673c-0.223,0.38-0.101,0.85,0.195,1.023l1.39,0.814l0.216-0.369
		C6.303,9.076,6.348,9.07,6.408,9.105l0.296,0.173C6.771,9.317,6.78,9.356,6.741,9.422l-0.803,1.372
		c-0.036,0.061-0.083,0.073-0.144,0.038l-0.296-0.173c-0.066-0.039-0.073-0.083-0.038-0.144l0.191-0.326L2.117,8.117L1.926,8.443
		C1.89,8.504,1.849,8.52,1.782,8.481L1.468,8.297z"/>
	<path fill="#993366" d="M6.769,6.35C6.243,5.59,6.155,4.579,7.058,3.953c0.88-0.609,1.62-0.057,2.05,0.564
		c0.036,0.052,0.087,0.126,0.129,0.2C9.28,4.79,9.284,4.821,9.198,4.88L7.506,6.051c0.373,0.465,0.792,0.737,1.413,0.307
		c0.259-0.179,0.403-0.364,0.546-0.6C9.503,5.69,9.549,5.684,9.612,5.725l0.292,0.189C9.968,5.956,9.964,6,9.933,6.065
		C9.807,6.313,9.524,6.654,9.127,6.929C8.172,7.59,7.374,7.224,6.769,6.35z M8.408,4.797c-0.233-0.349-0.59-0.656-1.062-0.329
		c-0.5,0.347-0.334,0.844-0.135,1.157L8.408,4.797z"/>
	<path fill="#993366" d="M11.172,5.338l0.422-0.128c0.067-0.02,0.111,0.003,0.131,0.07l0.1,0.328c0.022,0.074-0.003,0.11-0.07,0.131
		L10.16,6.223c-0.067,0.021-0.11-0.003-0.131-0.07L9.93,5.824C9.907,5.751,9.933,5.714,10,5.693l0.422-0.127L9.234,1.647
		l-0.362,0.11c-0.067,0.02-0.111-0.003-0.131-0.07L8.636,1.338c-0.021-0.074-0.004-0.109,0.07-0.131L9.718,0.9
		c0.067-0.021,0.108-0.003,0.131,0.07L11.172,5.338z"/>
	<path fill="#993366" d="M13.053,5.116l0.439-0.021c0.07-0.003,0.105,0.03,0.109,0.1l0.018,0.342c0.004,0.077-0.03,0.106-0.1,0.11
		l-1.666,0.08c-0.07,0.003-0.106-0.03-0.11-0.1l-0.017-0.342c-0.004-0.077,0.03-0.106,0.1-0.11l0.438-0.021L12.07,1.066
		l-0.377,0.018c-0.07,0.003-0.106-0.03-0.11-0.1L11.568,0.62c-0.003-0.077,0.023-0.106,0.1-0.11l1.055-0.05
		c0.069-0.003,0.106,0.022,0.109,0.1L13.053,5.116z"/>
	<path fill="#993366" d="M16.186,2.625c0.521,0.161,1.453,0.624,0.998,2.101c-0.386,1.25-1.283,1.602-2.173,1.328
		c-0.909-0.28-1.309-1.003-0.958-2.139C14.486,2.504,15.543,2.427,16.186,2.625z M16.373,4.578c0.23-0.749,0.156-1.247-0.418-1.424
		C15.4,2.983,15.053,3.352,14.854,4c-0.184,0.595-0.28,1.318,0.388,1.524C15.787,5.693,16.136,5.346,16.373,4.578z"/>
</g>
<g>
	<path fill="#993366" d="M5.472,17.973c-0.37,0.24-0.753,0.303-1.054-0.16c-0.109-0.168-0.179-0.354-0.191-0.446
		c-0.005-0.046,0.007-0.062,0.049-0.071l0.229-0.053c0.042-0.01,0.06,0.004,0.068,0.047c0.011,0.045,0.042,0.152,0.112,0.261
		c0.122,0.188,0.304,0.203,0.576,0.026l1.49-0.971l-0.118-0.181c-0.022-0.034-0.016-0.062,0.018-0.083l0.175-0.113
		c0.037-0.022,0.059-0.02,0.083,0.019l0.33,0.508c0.021,0.033,0.016,0.062-0.018,0.083L5.472,17.973z M7.833,16.107
		c0.098,0.15,0.053,0.311-0.084,0.398c-0.134,0.087-0.3,0.062-0.396-0.087c-0.098-0.149-0.051-0.308,0.083-0.396
		C7.573,15.938,7.736,15.961,7.833,16.107z"/>
	<path fill="#993366" d="M6.634,17.678c0.383-0.361,0.946-0.498,1.377-0.044c0.42,0.443,0.173,0.908-0.14,1.205
		C7.845,18.863,7.807,18.9,7.769,18.93c-0.038,0.03-0.055,0.035-0.096-0.009l-0.808-0.853c-0.23,0.25-0.347,0.511-0.05,0.824
		c0.124,0.129,0.24,0.193,0.386,0.256c0.042,0.016,0.05,0.041,0.032,0.08L7.152,19.41c-0.018,0.039-0.043,0.041-0.083,0.027
		c-0.151-0.049-0.368-0.181-0.558-0.379C6.056,18.578,6.193,18.096,6.634,17.678z M7.652,18.469c0.177-0.162,0.318-0.39,0.093-0.628
		c-0.239-0.252-0.505-0.114-0.665,0.024L7.652,18.469z"/>
	<path fill="#993366" d="M9.582,18.961c0.029,0.034,0.03,0.055,0.006,0.091L9.35,19.402c-0.022,0.033-0.05,0.037-0.083,0.017
		l-0.192-0.131c-0.033-0.022-0.041-0.047-0.009-0.078l0.131-0.158c-0.036-0.067-0.1-0.145-0.183-0.2
		c-0.146-0.1-0.294-0.137-0.391,0.006c-0.238,0.353,0.739,0.713,0.331,1.315c-0.225,0.331-0.603,0.369-1.03,0.08
		c-0.192-0.13-0.352-0.301-0.422-0.383c-0.03-0.034-0.025-0.056,0-0.093l0.238-0.353c0.022-0.032,0.05-0.036,0.083-0.016l0.192,0.13
		c0.033,0.021,0.041,0.047,0.013,0.081L7.9,19.788c0.026,0.075,0.104,0.167,0.21,0.237c0.156,0.104,0.322,0.16,0.436-0.008
		c0.267-0.396-0.728-0.701-0.313-1.313c0.188-0.278,0.57-0.356,0.978-0.081C9.393,18.746,9.524,18.889,9.582,18.961z"/>
	<path fill="#993366" d="M10.912,19.525c0.036,0.025,0.042,0.047,0.025,0.088l-0.16,0.393c-0.015,0.037-0.042,0.049-0.079,0.033
		l-0.215-0.087c-0.037-0.017-0.05-0.038-0.025-0.076l0.095-0.181c-0.049-0.062-0.127-0.122-0.22-0.159
		c-0.163-0.065-0.316-0.073-0.381,0.087c-0.16,0.393,0.872,0.545,0.597,1.22c-0.151,0.371-0.514,0.486-0.992,0.292
		c-0.215-0.088-0.407-0.222-0.493-0.287c-0.036-0.027-0.036-0.05-0.02-0.09l0.16-0.394c0.015-0.037,0.042-0.048,0.078-0.033
		l0.215,0.088c0.037,0.017,0.049,0.037,0.029,0.077l-0.09,0.188c0.041,0.069,0.137,0.145,0.255,0.191
		c0.174,0.07,0.348,0.09,0.425-0.1c0.18-0.441-0.858-0.535-0.579-1.224c0.127-0.312,0.485-0.468,0.941-0.28
		C10.683,19.354,10.841,19.466,10.912,19.525z"/>
	<path fill="#993366" d="M10.891,20.539c0.084-0.521,0.45-0.973,1.07-0.872c0.604,0.099,0.689,0.618,0.621,1.045
		c-0.006,0.036-0.014,0.087-0.025,0.134c-0.011,0.047-0.021,0.062-0.082,0.053l-1.162-0.188c-0.031,0.34,0.034,0.618,0.46,0.688
		c0.178,0.028,0.311,0.011,0.463-0.029c0.043-0.016,0.062,0.002,0.074,0.044l0.045,0.192c0.01,0.043-0.01,0.062-0.047,0.074
		c-0.15,0.053-0.402,0.08-0.677,0.035C10.977,21.607,10.793,21.141,10.891,20.539z M12.183,20.55
		c0.042-0.235,0.017-0.504-0.307-0.557c-0.344-0.056-0.473,0.216-0.515,0.424L12.183,20.55z"/>
	<path fill="#993366" d="M14.213,19.714c0.045,0.015,0.051,0.029,0.053,0.069l0.035,0.539c0.004,0.044-0.017,0.062-0.057,0.062
		l-0.26,0.018c-0.041,0.004-0.062-0.012-0.062-0.057l0.001-0.231c-0.021-0.003-0.049-0.001-0.066,0
		c-0.24,0.016-0.41,0.235-0.39,0.579l0.05,0.748l0.438-0.028c0.04-0.003,0.062,0.017,0.062,0.056l0.015,0.196
		c0.003,0.044-0.017,0.062-0.058,0.063l-1.1,0.069c-0.04,0.003-0.062-0.016-0.064-0.056L12.8,21.547
		c-0.002-0.044,0.017-0.062,0.058-0.062l0.211-0.014l-0.086-1.337l-0.217,0.015c-0.039,0.002-0.062-0.017-0.062-0.057l-0.015-0.208
		c-0.004-0.044,0.013-0.061,0.057-0.063l0.527-0.032c0.039-0.003,0.062,0.017,0.07,0.056l0.062,0.281
		c0.066-0.197,0.259-0.406,0.547-0.426C14.043,19.693,14.176,19.704,14.213,19.714z"/>
	<path fill="#993366" d="M15.08,20.168l0.193-0.062l0.399-0.77c0.021-0.041,0.05-0.062,0.086-0.074l0.298-0.097
		c0.036-0.013,0.062,0.001,0.073,0.038l0.063,0.197c0.015,0.043,0,0.062-0.037,0.076l-0.231,0.073l-0.284,0.543l0.801,0.693
		l0.225-0.073c0.038-0.013,0.062,0,0.075,0.038l0.061,0.188c0.015,0.041,0,0.062-0.038,0.074l-0.49,0.159
		c-0.041,0.015-0.067,0.007-0.104-0.021l-0.869-0.733l-0.125,0.041l0.217,0.669l0.203-0.064c0.037-0.014,0.062,0,0.074,0.037
		l0.061,0.188c0.016,0.042,0,0.062-0.037,0.075l-0.827,0.27c-0.038,0.014-0.063,0-0.076-0.037l-0.062-0.188
		c-0.015-0.042,0-0.062,0.039-0.075l0.2-0.063l-0.725-2.229l-0.205,0.064c-0.038,0.015-0.063,0-0.075-0.037L13.9,18.876
		c-0.015-0.038-0.004-0.062,0.037-0.075l0.573-0.187c0.038-0.013,0.063,0,0.075,0.038L15.08,20.168z"/>
	<path fill="#993366" d="M16.65,19.951c-0.289-0.442-0.321-1.021,0.205-1.365c0.515-0.334,0.929-0.006,1.164,0.355
		c0.02,0.031,0.047,0.074,0.068,0.117s0.023,0.061-0.023,0.092l-0.986,0.643c0.205,0.271,0.439,0.436,0.803,0.199
		c0.15-0.098,0.236-0.201,0.322-0.334c0.021-0.038,0.05-0.041,0.085-0.018l0.164,0.112c0.034,0.022,0.032,0.052,0.013,0.087
		c-0.074,0.141-0.242,0.33-0.475,0.479C17.434,20.686,16.982,20.462,16.65,19.951z M17.614,19.091
		c-0.128-0.202-0.326-0.385-0.604-0.206c-0.29,0.19-0.204,0.479-0.097,0.66L17.614,19.091z"/>
	<path fill="#993366" d="M18.54,17.119c0.042-0.021,0.056-0.014,0.085,0.016l0.391,0.375c0.03,0.03,0.028,0.057,0,0.084l-0.18,0.188
		c-0.027,0.028-0.054,0.032-0.083-0.001l-0.155-0.174c-0.018,0.013-0.037,0.033-0.051,0.047c-0.166,0.174-0.145,0.451,0.104,0.688
		l0.541,0.521l0.306-0.317c0.026-0.028,0.058-0.028,0.085-0.001l0.143,0.137c0.03,0.029,0.028,0.055,0.002,0.084l-0.765,0.793
		c-0.026,0.028-0.058,0.029-0.085,0.002l-0.143-0.137c-0.031-0.029-0.028-0.056-0.002-0.085l0.146-0.151l-0.963-0.929l-0.15,0.155
		c-0.025,0.029-0.056,0.029-0.084,0.002l-0.148-0.145c-0.032-0.03-0.032-0.055-0.004-0.086l0.367-0.381
		c0.027-0.027,0.058-0.029,0.09-0.008l0.236,0.165c-0.084-0.188-0.084-0.474,0.116-0.683C18.4,17.218,18.506,17.137,18.54,17.119z"
		/>
	<path fill="#993366" d="M19.932,18.204c-0.123-0.089-0.154-0.259-0.052-0.401c0.106-0.15,0.269-0.182,0.397-0.089
		c0.123,0.089,0.168,0.248,0.053,0.407C20.219,18.277,20.059,18.295,19.932,18.204z"/>
	<path fill="#993366" d="M20.896,16.453c0.078-0.158,0.086-0.289,0.092-0.426c0.003-0.043,0.025-0.062,0.068-0.061l0.189,0.016
		c0.043,0.004,0.061,0.023,0.062,0.064c0.01,0.133-0.012,0.354-0.145,0.618c-0.303,0.604-0.805,0.661-1.346,0.394
		c-0.516-0.26-0.807-0.727-0.514-1.316c0.229-0.459,0.604-0.486,0.938-0.32c0.043,0.021,0.034,0.049,0.017,0.084l-0.107,0.217
		c-0.018,0.034-0.034,0.053-0.084,0.033c-0.193-0.084-0.364-0.057-0.475,0.161c-0.145,0.291-0.007,0.517,0.396,0.717
		C20.361,16.816,20.706,16.836,20.896,16.453z"/>
	<path fill="#993366" d="M19.812,14.255c0.064-0.305,0.285-0.858,1.147-0.669c0.729,0.159,0.976,0.654,0.858,1.174
		c-0.114,0.531-0.508,0.795-1.172,0.648C19.824,15.229,19.729,14.63,19.812,14.255z M20.916,14.055
		c-0.438-0.096-0.719-0.029-0.792,0.307c-0.071,0.324,0.155,0.506,0.534,0.589c0.348,0.075,0.765,0.098,0.851-0.293
		C21.579,14.335,21.365,14.152,20.916,14.055z"/>
	<path fill="#993366" d="M20.232,13.447c-0.041,0.006-0.062-0.008-0.068-0.051l-0.077-0.545c-0.006-0.039,0.013-0.06,0.052-0.066
		l0.225-0.064c-0.244-0.105-0.385-0.318-0.418-0.552c-0.041-0.286,0.053-0.493,0.271-0.613c-0.271-0.119-0.403-0.339-0.438-0.573
		c-0.059-0.401,0.14-0.647,0.586-0.711l1.021-0.145L21.352,9.9c-0.006-0.04,0.01-0.062,0.051-0.068l0.193-0.027
		c0.045-0.006,0.062,0.011,0.068,0.051l0.124,0.873c0.006,0.04-0.013,0.062-0.052,0.068l-0.193,0.028
		c-0.044,0.006-0.062-0.012-0.068-0.051l-0.029-0.202l-0.819,0.117c-0.28,0.04-0.478,0.096-0.433,0.41
		c0.033,0.234,0.226,0.377,0.402,0.352l0.956-0.136l-0.026-0.19c-0.006-0.04,0.012-0.062,0.052-0.068l0.192-0.028
		c0.045-0.006,0.062,0.012,0.068,0.051l0.115,0.813c0.006,0.04-0.012,0.062-0.051,0.068l-0.194,0.027
		c-0.044,0.006-0.062-0.011-0.067-0.051l-0.024-0.179l-0.821,0.117c-0.279,0.041-0.477,0.096-0.434,0.41
		c0.037,0.25,0.255,0.377,0.447,0.35l0.912-0.13l-0.033-0.241c-0.008-0.043,0.012-0.062,0.052-0.068l0.192-0.027
		c0.045-0.006,0.062,0.011,0.068,0.051l0.127,0.896c0.006,0.039-0.011,0.062-0.051,0.066l-0.194,0.027
		c-0.044,0.007-0.062-0.011-0.067-0.051l-0.028-0.21l-1.325,0.188l0.03,0.214c0.006,0.041-0.009,0.062-0.052,0.068L20.232,13.447z"
		/>
</g>
<g>
	<path fill="#993366" d="M12.747,8.606c2.017,0,3.269,1.107,3.269,3.205c0,1.071-0.307,2.421-1.756,2.421
		c-0.441,0-0.783-0.181-0.801-0.566c-0.217,0.262-0.595,0.566-1.243,0.566c-0.603,0-1.251-0.297-1.251-1.188
		c0-1.396,1.512-1.503,2.439-1.512v-0.216c0-0.54-0.172-0.828-0.738-0.828c-0.558,0-0.702,0.18-0.747,0.477
		c-0.018,0.135-0.054,0.171-0.198,0.171h-0.405c-0.135,0-0.171-0.036-0.153-0.171c0.09-0.882,0.892-1.143,1.657-1.143
		c1.205,0,1.494,0.648,1.494,1.377v2.16c0,0.279,0.062,0.44,0.297,0.44c0.676,0,1.018-0.854,1.018-1.936
		c0-1.828-1.044-2.917-2.943-2.917c-1.898,0-3.079,1.369-3.079,3.205c0,2.125,1.368,2.98,3.105,2.98c0.181,0,0.369-0.009,0.56-0.026
		c0.136-0.019,0.162,0.02,0.181,0.146v0.019c0.019,0.127-0.011,0.162-0.136,0.172c-0.217,0.019-0.433,0.025-0.64,0.025
		c-1.999,0-3.502-1.009-3.502-3.295C9.173,10.046,10.578,8.606,12.747,8.606z M13.422,12.108c-0.656,0.018-1.548,0.036-1.548,0.81
		c0,0.352,0.198,0.611,0.685,0.611c0.576,0,0.863-0.314,0.863-0.62V12.108z"/>
</g>
</svg>
